# xmcd
#
# Track frame offsets:
#	150
#	14854
#	26592
#	47126
#	63250
#	77796
#	96873
#	117681
#	128369
#	144663
#	161165
#	174433
#
# Disc length: 2559 seconds
# Revision: 0
# Processed by: cddbd v1.5.2PL0 Copyright (c) Steve Scherf et al.
# Submitted via: dBpowerAMP V12.0
#
DISCID=a509fd0c
DTITLE=The Seldom Scene - Changes
DYEAR=2019
DGENRE=Bluegrass
TTITLE0=Everybody's Talkin'
TTITLE1=Steel Rail Blues
TTITLE2=Darcy Farrow
TTITLE3=Louise
TTITLE4=A Good Time
TTITLE5=Seven Bridges Road
TTITLE6=Bob Dylan's Dream
TTITLE7=Pack Up Your Sorrows
TTITLE8=Changes
TTITLE9=I'll Be Here In The Morning
TTITLE10=Morning Sky
TTITLE11=Sweet Baby James
EXTD=
EXTT0=
EXTT1=
EXTT2=
EXTT3=
EXTT4=
EXTT5=
EXTT6=
EXTT7=
EXTT8=
EXTT9=
EXTT10=
EXTT11=
PLAYORDER=
